<?xml version="1.0" encoding="UTF-8" standalone="no"?>
<svg
   xmlns:dc="http://purl.org/dc/elements/1.1/"
   xmlns:cc="http://creativecommons.org/ns#"
   xmlns:rdf="http://www.w3.org/1999/02/22-rdf-syntax-ns#"
   xmlns:svg="http://www.w3.org/2000/svg"
   xmlns="http://www.w3.org/2000/svg"
   xmlns:xlink="http://www.w3.org/1999/xlink"
   xmlns:sodipodi="http://sodipodi.sourceforge.net/DTD/sodipodi-0.dtd"
   xmlns:inkscape="http://www.inkscape.org/namespaces/inkscape"
   version="1.1"
   id="svg2"
   width="315"
   height="315"
   viewBox="0 0 315 315"
   sodipodi:docname="icon.svg"
   inkscape:version="1.0.2 (1.0.2+r75+1)">
  <metadata
     id="metadata8">
    <rdf:RDF>
      <cc:Work
         rdf:about="">
        <dc:format>image/svg+xml</dc:format>
        <dc:type
           rdf:resource="http://purl.org/dc/dcmitype/StillImage" />
        <dc:title></dc:title>
      </cc:Work>
    </rdf:RDF>
  </metadata>
  <defs
     id="defs6">
    <linearGradient
       inkscape:collect="always"
       id="linearGradient909">
      <stop
         style="stop-color:#cb9191;stop-opacity:1"
         offset="0"
         id="stop905" />
      <stop
         style="stop-color:#514e4e;stop-opacity:1"
         offset="1"
         id="stop907" />
    </linearGradient>
    <linearGradient
       inkscape:collect="always"
       xlink:href="#linearGradient909"
       id="linearGradient911"
       x1="161.26907"
       y1="8.606061"
       x2="161.95883"
       y2="286.49625"
       gradientUnits="userSpaceOnUse"
       gradientTransform="translate(-5.2478275,10.339529)" />
  </defs>
  <sodipodi:namedview
     pagecolor="#ffffff"
     bordercolor="#666666"
     borderopacity="1"
     objecttolerance="10"
     gridtolerance="10"
     guidetolerance="10"
     inkscape:pageopacity="0"
     inkscape:pageshadow="2"
     inkscape:window-width="1542"
     inkscape:window-height="850"
     id="namedview4"
     showgrid="false"
     inkscape:zoom="2.2730159"
     inkscape:cx="115.28529"
     inkscape:cy="139.90223"
     inkscape:window-x="58"
     inkscape:window-y="24"
     inkscape:window-maximized="1"
     inkscape:current-layer="g10" />
  <g
     inkscape:groupmode="layer"
     inkscape:label="Image"
     id="g10">
    <g
       id="g940">
      <rect
         style="fill:url(#linearGradient911);fill-opacity:1;stroke-width:0.93;stroke-miterlimit:4;stroke-dasharray:none"
         id="rect903"
         width="280"
         height="280"
         x="17.5"
         y="17.5"
         ry="140" />
      <g
         id="g64"
         transform="matrix(0.82172234,0,0,0.82111795,29.290123,28.609939)"
         style="fill:#fda43c;fill-opacity:1">
        <path
           style="fill:#fda43c;fill-opacity:1"
           d="M 103.27088,275.1477 C 75.094861,258.80943 51.530508,244.93051 50.90565,244.30565 c -0.84814,-0.84814 -1.930665,-0.65161 -4.270878,0.77538 -2.001629,1.22054 -4.979061,1.91285 -8.236889,1.91523 -12.296894,0.009 -19.854322,-12.22476 -14.449269,-23.39011 7.226802,-14.92858 29.245738,-11.04609 30.829459,5.43601 0.262012,2.72681 0.878075,4.95784 1.369028,4.95784 0.490954,0 2.5712,1.05584 4.622771,2.34631 C 69.443992,241.80248 155.13386,291 155.96302,291 c 0.49951,0 13.6536,-7.3573 29.23132,-16.34956 15.57773,-8.99226 29.80419,-17.11544 31.61438,-18.05152 3.82557,-1.97828 6.62819,-1.38794 8.74449,1.84194 3.16501,4.83041 1.68209,5.98375 -34.5319,26.85711 -18.8,10.83611 -34.7082,19.6691 -35.35156,19.62885 -0.64336,-0.0403 -24.22285,-13.44086 -52.39887,-29.77912 z M 41.8,233.8 c 3.232481,-3.23248 -0.39374,-8.69849 -4.835449,-7.28875 -2.437516,0.77364 -3.616398,4.9984 -1.953774,7.00174 1.486125,1.79067 5.13146,1.94477 6.789223,0.28701 z m 223.12168,10.9262 c -10.2434,-6.90303 -10.66931,-20.97494 -0.83177,-27.48171 L 267.5,214.98898 267.23438,156.715 266.96877,98.441019 232.90101,78.05808 c -19.26623,-11.527096 -34.76602,-21.448616 -35.6749,-22.835741 -1.42958,-2.181813 -1.4445,-2.743895 -0.13508,-5.08757 3.04549,-5.451 4.3825,-4.879836 44.48668,19.004586 L 279,91.426552 v 61.705168 61.70516 l 3.42905,2.11927 c 7.16944,4.43096 9.68901,16.35882 4.83896,22.90809 -5.39552,7.28586 -15.49034,9.48222 -22.34633,4.86196 z m 12.06754,-11.21321 c 1.66263,-2.00334 0.48375,-6.2281 -1.95377,-7.00174 -4.44171,-1.40974 -8.06793,4.05627 -4.83545,7.28875 1.65776,1.65776 5.3031,1.50366 6.78922,-0.28701 z M 110.5,234.61671 C 101.18931,230.21507 96.053086,222.00866 96.031731,211.5 c -0.01208,-5.94562 3.230264,-15.30782 5.865489,-16.93648 0.77903,-0.48147 1.10923,-15.12268 1.12474,-49.87254 0.0205,-45.881578 0.14772,-49.467896 1.89116,-53.307068 4.89484,-10.778782 19.82217,-13.945286 28.75722,-6.100211 6.45018,5.66334 6.32966,4.538731 6.32966,59.061739 0,44.84933 0.15344,49.53634 1.66252,50.78212 5.11745,4.22457 7.34717,18.40493 4.09013,26.012 -2.24904,5.25282 -8.12162,11.34357 -13.27107,13.7641 -6.28275,2.95324 -15.37885,2.8345 -21.98158,-0.28695 z m 15.04539,-7.73246 c 9.82373,-2.47364 14.87147,-13.26024 10.46499,-22.36282 -1.21286,-2.50543 -3.06137,-5.01353 -4.10779,-5.57356 C 130.07043,197.96733 130,196.03083 130,146.63913 V 95.348628 l -2.52734,-2.374314 c -3.62852,-3.408815 -8.98729,-3.239912 -12.10225,0.38145 L 113,96.111527 v 50.562223 50.56222 l -2.94545,3.35468 c -7.88803,8.98397 -4.654,21.98306 6.44545,25.90734 4.9321,1.74378 3.83951,1.69712 9.04539,0.38626 z m -10.78282,-4.44964 C 111.12592,220.46139 109,216.10308 109,210.62086 c 0,-3.7447 0.57345,-5.08649 3.5,-8.18954 l 3.5,-3.71108 V 169.86012 141 h 5.5 5.5 v 29.06456 29.06456 l 2.98194,2.50914 c 9.13249,7.68448 3.97672,22.42267 -7.80867,22.3217 -2.5703,-0.022 -5.90511,-0.70843 -7.4107,-1.52535 z m 76.18799,-13.73719 c -6.01793,-1.70162 -10.9375,-4.83368 -15.4666,-9.84685 -5.68171,-6.28898 -7.82581,-12.02211 -7.84016,-20.96391 -0.0191,-11.91855 4.37574,-19.46412 22.69906,-38.97209 l 8.84285,-9.41457 7.96325,8.5 c 12.1773,12.99811 20.65411,24.64994 22.5002,30.92778 3.19458,10.8635 0.0124,23.41064 -7.95901,31.38207 -7.68269,7.68269 -20.6852,11.23054 -30.73959,8.38757 z M 34.571429,168.42857 C 33.198422,167.05557 33,162.09583 33,129.14939 V 91.441628 L 86.25,59.665073 139.5,27.888518 139.64918,23.959274 C 139.98296,15.16775 146.72445,9 156,9 c 20.53559,0 22.36359,29.059594 2.04395,32.492575 -2.80565,0.474011 -5.12842,0.126978 -8.22671,-1.229109 L 145.5,38.373856 95.286725,68.381336 45.07345,98.388816 44.786725,132.7759 c -0.272717,32.70706 -0.381561,34.45639 -2.227855,35.80559 -2.555771,1.86767 -6.033436,1.80109 -7.987441,-0.15292 z M 158.97648,28.023523 c 1.47864,-1.478644 1.76632,-2.549132 1.14212,-4.25 -1.08574,-2.958558 -5.97592,-3.689137 -7.81929,-1.168181 C 150.5626,24.980433 150.64951,25.649508 153,28 c 2.50186,2.501855 3.49424,2.505761 5.97648,0.02352 z"
           id="path78" />
        <path
           style="fill:#fda43c;fill-opacity:1"
           d="m 104.3721,275.67048 c -27.570352,-16.04377 -51.154244,-29.87307 -52.408653,-30.7318 -2.085236,-1.42748 -2.585295,-1.40605 -5.833538,0.25 -12.144775,6.19176 -26.193134,-4.37721 -23.673135,-17.80996 1.080121,-5.75754 7.736156,-11.98519 13.777968,-12.89121 9.198562,-1.37941 18.719163,6.52377 18.793025,15.60035 l 0.02777,3.41214 48.512513,28 c 26.68188,15.4 49.54337,28.39764 50.80331,28.88363 1.9304,0.74462 7.0919,-1.88632 32.80871,-16.72343 16.78485,-9.68389 31.22571,-17.87868 32.09078,-18.21064 3.87842,-1.48829 8.35335,4.08603 6.51657,8.11754 -0.92097,2.02142 -65.85905,40.26003 -69.53767,40.94706 -0.96236,0.17973 -24.30731,-12.79992 -51.87765,-28.84368 z M 41.8,233.8 c 3.232481,-3.23248 -0.39374,-8.69849 -4.835449,-7.28875 -2.437516,0.77364 -3.616398,4.9984 -1.953774,7.00174 1.486125,1.79067 5.13146,1.94477 6.789223,0.28701 z m 224.7,11.78836 c -11.44824,-5.08822 -12.65517,-22.00372 -2.03809,-28.56457 l 3.03809,-1.8774 -0.26572,-58.47941 -0.26572,-58.47942 -34.0887,-20.288334 c -19.09376,-11.363897 -34.7864,-21.353142 -35.6748,-22.709011 -1.40877,-2.150064 -1.42152,-2.715225 -0.11403,-5.055446 3.02305,-5.410824 4.36073,-4.837307 44.42173,19.045288 L 278.95254,91.5 l 0.0237,61.2468 0.0237,61.24681 4.91563,4.75319 c 5.59639,5.41147 7.07407,10.00651 5.21418,16.21426 -2.96045,9.88113 -13.34073,14.75586 -22.62981,10.6273 z m 10.48922,-12.07537 c 1.66263,-2.00334 0.48375,-6.2281 -1.95377,-7.00174 -4.44171,-1.40974 -8.06793,4.05627 -4.83545,7.28875 1.65776,1.65776 5.3031,1.50366 6.78922,-0.28701 z m -166.76941,0.90926 c -9.67472,-4.82112 -14.669153,-13.46421 -14.055535,-24.32372 0.291021,-5.15036 1.042465,-7.75215 3.355365,-11.61759 L 102.5,193.5 l 0.5,-50.0745 0.5,-50.074498 2.75112,-4.155746 c 7.85025,-11.858346 26.02415,-10.608921 31.83576,2.188656 1.74265,3.837424 1.87068,7.414542 1.89116,52.836848 l 0.022,48.72077 2.99394,4.27923 c 6.59069,9.42008 5.69374,22.37068 -2.16967,31.32661 -7.38304,8.40882 -20.47591,10.92214 -30.60446,5.87488 z m 20.41306,-9.50437 c 3.65159,-2.25681 7.378,-9.09741 7.34517,-13.4836 -0.0278,-3.71621 -3.0468,-10.35708 -5.83681,-12.83927 -2.13417,-1.8987 -2.14133,-2.07181 -2.17303,-52.5 -0.0343,-54.540938 0.11883,-52.970826 -5.36909,-55.05733 -3.63371,-1.381532 -7.18383,-0.381082 -9.61493,2.709556 C 113.06483,96.187294 113,97.917939 113,146.71178 v 50.44207 l -2.9756,2.97559 c -6.05788,6.05789 -6.00808,15.40275 0.11928,22.38143 5.05285,5.75487 13.47193,6.74392 20.48919,2.40701 z m -15.76007,-2.60159 c -7.29972,-4.53037 -7.82813,-17.59391 -0.86245,-21.32183 C 115.92744,199.96847 116,198.85508 116,170.46482 V 141 h 5.5 5.5 v 29.06456 29.06456 l 2.97074,2.49972 c 6.77034,5.69686 5.65964,16.92534 -2.06958,20.92227 -3.68974,1.90804 -9.75164,1.79878 -13.02836,-0.23482 z m 74.48017,-14.31697 c -7.33979,-2.3984 -15.20479,-8.99604 -18.26844,-15.32471 -8.02825,-16.58414 -3.41379,-29.88423 18.12798,-52.24966 l 10.22104,-10.61184 6.31522,6.84344 c 20.09091,21.77139 24.75208,29.56907 24.71361,41.34345 -0.0308,9.41822 -2.7033,15.84764 -9.26751,22.29528 -8.80153,8.64525 -20.38489,11.4478 -31.8419,7.70404 z M 34.654988,168.17126 c -1.478734,-1.63398 -1.652784,-5.81406 -1.634296,-39.25 L 33.041385,91.5 86.322762,59.740894 c 53.253698,-31.742609 53.281428,-31.76086 53.377028,-35.133323 0.13425,-4.736442 2.99237,-10.25149 6.6735,-12.877265 C 148.83736,9.9726691 150.87755,9.5 156,9.5 c 7.68574,0 11.71731,2.277162 14.53166,8.207954 6.36006,13.402828 -5.76389,27.643432 -19.41532,22.804944 C 148.57735,39.613004 146.05,38.847821 145.5,38.812493 144.95,38.777165 122.1125,52.13714 94.75,68.501326 L 45,98.254392 v 33.237948 c 0,32.11174 -0.07023,33.32722 -2.07258,35.8728 -2.417154,3.07291 -5.912743,3.41355 -8.272432,0.80612 z M 157.94809,29.02778 C 162.33486,26.680051 160.95649,21 156,21 c -5.92307,0 -6.0769,7.447669 -0.18426,8.921053 0.17366,0.04342 1.13322,-0.358552 2.13235,-0.893273 z"
           id="path76" />
        <path
           style="fill:#fda43c;fill-opacity:1"
           d="M 109.5,278.41598 C 84.2,263.7922 60.333464,249.90909 56.463254,247.56464 l -7.036745,-4.26263 -3.463255,1.91052 c -4.650131,2.56527 -12.42494,2.01903 -16.930946,-1.18952 -4.676114,-3.32969 -7.413737,-9.98378 -6.535693,-15.8857 0.553656,-3.7215 1.563645,-5.47663 5.114203,-8.88731 2.739974,-2.63203 5.464538,-4.31841 7.156741,-4.4297 5.5929,-0.36781 9.821993,0.38268 12.911489,2.29124 3.591243,2.21851 7.315644,9.05317 7.331572,13.45418 0.0094,2.58992 0.860221,3.42091 7.25,7.08085 3.981659,2.28061 26.704442,15.40609 50.49507,29.16773 l 43.2557,25.02116 30.96544,-17.91773 C 217.62366,256.18436 221.896,254.296 224.8,257.2 c 1.32629,1.32629 1.58231,5.68318 0.43469,7.39744 -0.66497,0.9933 -65.56213,38.83543 -68.49592,39.9406 C 156.05745,304.79469 134.8,293.03977 109.5,278.41598 Z m -67,-47.92897 c 0,-3.67589 -2.522256,-5.25353 -5.922341,-3.70435 -3.272167,1.4909 -3.467314,5.48079 -0.374038,7.64741 1.87928,1.3163 2.50482,1.34349 4.25,0.18473 C 41.695652,233.79012 42.5,232.16766 42.5,230.48701 Z m 223.67963,14.88793 c -11.05444,-5.63618 -11.97658,-22.01108 -1.60066,-28.42375 l 3.43707,-2.12422 -0.25802,-58.16349 L 267.5,98.5 l -35,-21 C 199.29928,57.579568 197.48437,56.339372 197.196,53.375432 c -0.36931,-3.79572 2.09457,-6.607972 5.41418,-6.179723 C 203.90749,47.363069 221.60236,57.4 241.93213,69.5 l 36.9632,22 0.0523,62.18261 c 0.051,60.62184 0.10098,62.19806 1.99074,62.79784 3.504,1.11213 7.88569,7.16374 8.59063,11.86466 0.85198,5.6814 -1.9606,12.40188 -6.56135,15.6779 -4.29487,3.05822 -12.19386,3.69432 -16.78806,1.35193 z m 11.64713,-14.29458 C 278.24668,228.26547 276.35184,226 273.57756,226 c -4.69073,0 -6.29188,5.68583 -2.37394,8.43007 1.87471,1.3131 2.50906,1.34177 4.25,0.1921 1.12551,-0.74325 2.19342,-2.33707 2.37314,-3.54181 z m -165.07879,4.49289 C 107.21672,233.59934 102.40353,229.54284 99.272296,224.21611 96.866602,220.12365 96.5,218.4421 96.5,211.5 c 0,-7.11111 0.333333,-8.55556 3,-13 l 3,-5 0.5,-49.5 c 0.56934,-56.364357 0.32579,-54.713936 8.87372,-60.134872 7.30103,-4.630172 17.74452,-3.370472 23.33814,2.815061 4.69685,5.193859 4.78814,6.304058 4.78814,58.228671 0,34.61285 0.32336,49.17296 1.10278,49.65466 0.60652,0.37485 2.17713,2.98891 3.49023,5.80902 9.62953,20.68105 -10.42222,42.84576 -31.84504,35.20071 z m 15.95044,-9.6693 c 5.10035,-2.46904 9.31291,-8.82073 9.27963,-13.99181 -0.0252,-3.91047 -2.87635,-10.76274 -5.31956,-12.78458 C 131.15489,197.88328 131,193.15764 131,148.52678 131,115.07685 130.64474,98.279335 129.89158,96.118839 128.75408,92.855788 124.66318,90 121.12639,90 c -1.08512,0 -3.35747,1.165002 -5.04966,2.588894 L 113,95.177787 v 50.731003 50.73099 l -3.01425,3.37618 c -5.91057,6.62027 -6.16235,15.43544 -0.62111,21.74656 5.5965,6.37406 11.92254,7.72915 19.33377,4.14143 z m -13.82561,-3.58766 c -7.50454,-4.65748 -7.8629,-15.90425 -0.67304,-21.12299 C 115.86307,199.98599 116,197.64701 116,170.4433 V 141 h 5.5 5.5 v 29.03333 29.03334 l 3.5,3.5 c 2.96671,2.96671 3.5,4.18814 3.5,8.01632 0,5.63291 -2.15379,9.92806 -5.96727,11.90008 -3.80825,1.96933 -9.84124,1.89287 -13.15993,-0.16678 z m 78.39441,-13.37077 c -9.76041,-1.92624 -17.64256,-8.0067 -22.19887,-17.12467 -2.61602,-5.23512 -3.06822,-7.25922 -3.06755,-13.73057 6.5e-4,-6.2643 0.49721,-8.63845 2.84242,-13.59028 3.30174,-6.97151 12.09723,-18.14052 21.84982,-27.74613 l 6.84935,-6.74612 8.03898,8.74612 c 18.73957,20.38799 22.91242,27.55562 22.84831,39.24613 -0.086,15.68087 -10.50177,28.13425 -25.86333,30.92285 -3.26351,0.59243 -6.18851,1.02785 -6.5,0.96758 -0.31149,-0.0603 -2.4711,-0.48547 -4.79913,-0.94491 z M 34.654988,168.17126 c -1.47896,-1.63423 -1.652176,-5.80895 -1.628547,-39.25 L 33.052881,91.5 44.776441,84.611907 C 51.224398,80.823456 75.2875,66.503607 98.25,52.790021 L 140,27.856227 v -3.526984 c 0,-11.658753 13.49464,-19.1579623 23.86385,-13.26156 5.18995,2.951242 7.43419,6.481098 7.93122,12.474637 C 172.65479,33.909413 166.23557,41 155.99037,41 152.5432,41 149.58724,40.399189 148.17797,39.412101 145.98314,37.87478 144.37544,38.740196 97.705462,66.581222 71.192458,82.397583 48.2625,96.19278 46.75,97.237215 L 44,99.136188 v 33.776922 c 0,31.45253 -0.125846,33.8908 -1.828741,35.4319 -2.399142,2.1712 -5.458119,2.10048 -7.516271,-0.17375 z M 159.43515,28.071664 c 3.28468,-3.629539 -1.07619,-9.404508 -5.36743,-7.107909 C 149.83431,23.22941 151.2821,30 156,30 c 0.92951,0 2.47533,-0.867751 3.43515,-1.928336 z"
           id="path74" />
        <path
           style="fill:#fda43c;fill-opacity:1"
           d="m 106,276.17815 c -27.225,-15.78339 -51.075,-29.64722 -53,-30.8085 -3.450565,-2.08161 -3.556498,-2.08538 -7.5,-0.26677 -5.342912,2.46398 -9.309075,2.36055 -14.48738,-0.3778 -5.388682,-2.84961 -8.013877,-7.50727 -8.008882,-14.20948 0.0069,-9.21209 6.211965,-15.50479 15.295922,-15.51186 8.632249,-0.007 15.142621,5.64811 16.310251,14.1669 0.416747,3.0405 1.297385,4.91488 2.729296,5.80913 1.162714,0.72612 23.834138,13.8655 50.380943,29.19861 l 48.26692,27.87838 31.2398,-18.02838 C 204.40876,264.11277 219.45452,256 220.66191,256 c 4.73561,0 7.13491,6.14706 3.58809,9.19279 -1.6134,1.38546 -67.98123,39.88544 -68.51373,39.74482 C 155.60632,304.90329 133.225,291.96153 106,276.17815 Z M 42,234 c 2.40751,-2.40751 2.446628,-2.91734 0.443296,-5.77749 C 39.500194,224.02064 34,225.92789 34,231.15031 34,235.74786 38.610001,237.39 42,234 Z m 224.40454,11.09612 c -8.71802,-3.9593 -11.78791,-15.97151 -6.01577,-23.53918 1.54954,-2.03155 3.89597,-4.18519 5.21429,-4.78585 L 268,215.67897 V 157.05415 98.429328 L 232.75,77.423105 C 200.95627,58.476547 197.46814,56.142646 197.17504,53.620006 196.81314,50.505092 199.34955,47 201.96552,47 c 0.91056,0 18.61581,10.136432 39.34502,22.525405 L 279,92.050811 l 0.006,61.724599 0.006,61.72459 2.9728,1.69151 c 4.41942,2.51462 7.00642,7.43124 7.01081,13.32409 0.005,6.70221 -2.6202,11.35987 -8.00888,14.20948 -5.19232,2.74576 -9.13313,2.84603 -14.58284,0.37104 z m 9.6612,-10.1313 c 2.19222,-1.17324 2.63573,-5.86335 0.73426,-7.76482 -1.9093,-1.9093 -5.54973,-1.3954 -7.2433,1.02251 -2.00333,2.86015 -1.96421,3.36998 0.4433,5.77749 2.26853,2.26853 3.31787,2.43543 6.06574,0.96482 z m -162.34815,0.59798 c -8.01602,-2.85979 -13.4206,-8.26437 -16.280395,-16.28039 -2.63808,-7.39456 -1.500326,-14.63763 3.550315,-22.60166 L 104,191.93054 v -49.01493 c 0,-54.033251 -0.241,-51.862791 6.40672,-57.699566 9.20214,-8.079581 24.81933,-3.418025 28.38154,8.47157 C 139.66358,96.609171 140,110.93838 140,145.29957 v 47.56754 l 3.25,5.22815 c 2.96787,4.7743 3.25,5.93031 3.25,13.31645 0,7.0394 -0.35966,8.70013 -2.77346,12.80639 -5.98902,10.18828 -19.22488,15.19202 -30.00895,11.3447 z m 17.81638,-11.02091 C 135.82959,221.26546 138,216.70866 138,210.96638 c 0,-4.57403 -1.12352,-7.26174 -4.59532,-10.99306 l -2.35096,-2.52668 -0.27686,-51.31045 L 130.5,94.825752 127.69424,92.412876 C 122.82643,88.226704 115.1826,90.168848 113.10842,96.118839 112.35526,98.279335 112,115.07685 112,148.52678 c 0,43.55511 -0.18129,49.37879 -1.57309,50.53388 -2.66714,2.21353 -5.42774,8.66775 -5.41046,12.6495 0.0225,5.17618 3.71223,11.27724 8.50393,14.06133 5.50164,3.19657 12.86999,2.69361 18.01359,-1.2296 z m -16.23542,-2.44286 c -7.0807,-4.44684 -8.18644,-13.52427 -2.37748,-19.51759 L 116,199.40479 V 170.70239 142 h 5.5 5.5 v 28.9433 c 0,26.7222 0.13815,29.04357 1.80024,30.25 3.33309,2.41931 5.19976,6.20448 5.19976,10.54389 0,9.24636 -10.8794,15.27427 -18.70145,10.36184 z M 188.69799,207.6152 C 176.11065,202.92962 168,191.3247 168,178 c 0,-11.28252 5.66678,-21.13672 21.87035,-38.03126 l 9.08148,-9.46874 8.31748,8.5 c 10.36533,10.59279 19.1923,22.23766 21.26828,28.05792 1.93082,5.41325 2.13422,15.36944 0.42061,20.58854 -2.68996,8.19278 -8.06439,14.30135 -16.34173,18.574 -5.26351,2.71695 -18.32104,3.47836 -23.91848,1.39474 z M 35,168 c -1.927885,-1.92789 -2,-3.33333 -2,-38.97823 V 92.043547 L 84.955442,61.007487 C 113.53093,43.937655 137.55129,29.72568 138.33402,29.425321 c 0.86695,-0.332684 1.61142,-2.505663 1.90492,-5.560206 C 141.10602,14.841211 146.96627,9.5 156,9.5 c 9.02008,0 14.89401,5.341536 15.75763,14.329409 1.17679,12.247118 -11.69255,20.984201 -22.98028,15.60146 L 145.48685,37.861737 94.743424,68.16027 44,98.458802 v 34.213898 34.21389 l -2.222506,1.55671 C 38.840182,170.50067 37.406924,170.40692 35,168 Z M 159.17126,28.345012 c 2.26919,-2.053585 2.3248,-4.139388 0.17375,-6.516271 -2.05358,-2.269186 -4.13939,-2.324803 -6.51627,-0.173753 -2.24438,2.031136 -2.34522,4.685676 -0.25731,6.773583 2.02376,2.023766 4.30315,1.994908 6.59983,-0.08356 z"
           id="path72" />
        <path
           style="fill:#fda43c;fill-opacity:1"
           d="M 119.5,283.92267 C 99.7,272.43207 75.738705,258.51261 66.252678,252.99053 l -17.247323,-10.04014 -2.654191,1.73909 c -3.830367,2.50975 -12.490551,2.3389 -16.075669,-0.31714 -10.155582,-7.52379 -9.760082,-22.22821 0.744438,-27.67772 4.52405,-2.34697 12.95876,-1.84626 16.771538,0.99562 3.731491,2.78129 6.193083,7.3127 6.473053,11.9159 0.22293,3.66534 0.60843,4.0877 7.235476,7.92729 3.85,2.23061 26.686719,15.43537 50.74827,29.3439 l 43.74826,25.28824 31.3327,-18.08279 C 204.56222,264.13725 219.60585,256 220.75954,256 c 2.80259,0 5.24046,2.58523 5.24046,5.55724 0,1.68899 -1.12668,3.14836 -3.75,4.85732 -3.94067,2.56715 -66.39434,38.65285 -66.6196,38.49278 -0.0717,-0.051 -16.3304,-9.49406 -36.1304,-20.98467 z M 42,234 c 2.432725,-2.43272 2.508105,-3.78107 0.345012,-6.17126 C 39.005627,224.13876 34,226.13115 34,231.15031 34,235.74786 38.610001,237.39 42,234 Z m 226.31524,11.94174 c -7.51311,-2.27678 -12.3966,-11.21214 -10.32748,-18.89627 1.2059,-4.47837 5.13896,-9.63352 8.05616,-10.55941 C 267.95612,215.87915 268,214.54717 268,157.1034 V 98.341582 L 232.95937,77.432986 c -35.48487,-21.17367 -37.285,-22.536056 -35.59528,-26.939402 0.31888,-0.830988 1.69619,-2.019557 3.06069,-2.641265 2.27355,-1.035898 5.64009,0.753243 40.27806,21.405726 L 278.5,91.794149 l 0.26232,61.852921 0.26231,61.85293 2.96682,1.69151 c 4.44203,2.5326 7.00043,7.43061 7.00481,13.41061 0.008,10.95383 -10.19083,18.51857 -20.68102,15.33962 z m 7.7505,-10.97692 c 2.19222,-1.17324 2.63573,-5.86335 0.73426,-7.76482 -1.69346,-1.69346 -4.82295,-1.48921 -6.97126,0.45499 -2.35835,2.13428 -2.31172,3.86203 0.17126,6.34501 2.26853,2.26853 3.31787,2.43543 6.06574,0.96482 z M 113.01759,235.102 C 105.78199,232.52575 99.730384,226.19856 97.581709,218.96319 96.711769,216.03378 96,212.67535 96,211.5 c 0,-3.96271 3.031551,-12.38405 5.52466,-15.34694 L 104,193.21129 v -49.13776 c 0,-53.786923 -0.046,-53.332699 5.90909,-58.343582 7.6054,-6.399517 17.5061,-5.923672 24.25895,1.165925 2.01743,2.118028 4.15242,5.595423 4.74443,7.727544 0.69868,2.516305 1.07833,20.563703 1.08195,51.432303 l 0.006,47.55572 2.37822,3.22349 c 3.20197,4.34003 4.97622,11.1299 4.41814,16.90781 -1.5962,16.52601 -18.07966,26.94896 -33.77877,21.35926 z m 17.77388,-9.77966 c 8.72195,-6.46044 9.84059,-18.91542 2.31091,-25.72969 C 131.01831,197.70659 131,197.24661 131,146.76809 V 95.846154 l -2.92308,-2.923077 C 123.3401,88.186252 116.52595,89.14846 113.51035,94.979984 112.22276,97.469903 112,105.21748 112,147.50898 v 49.6083 l -3.25,4.04419 c -2.8855,3.59061 -3.25,4.74235 -3.25,10.2692 0,5.21058 0.43667,6.79752 2.67963,9.73819 1.47379,1.93224 4.17379,4.27498 6,5.20608 4.38088,2.23362 12.90441,1.69353 16.61184,-1.0526 z m -14.46599,-2.78147 c -8.13806,-3.53988 -9.54212,-16.26607 -2.29402,-20.79259 C 115.91665,200.57096 116,199.28005 116,171.25945 V 142 h 5.5 5.5 v 28.70239 28.7024 l 3.11319,3.21199 c 2.25234,2.32383 3.23159,4.41086 3.5414,7.54761 0.51991,5.26397 -1.04208,8.50622 -5.56704,11.55559 -3.83991,2.58772 -7.16645,2.81988 -11.76207,0.82089 z m 72.33674,-15.08937 c -13.0928,-4.80205 -21.53353,-18.00808 -20.41514,-31.94078 0.84487,-10.52529 5.92282,-18.7979 22.10435,-36.01072 l 8.46078,-9 4.69073,4.5 c 8.11607,7.78606 20.39716,23.11247 23.50721,29.33623 C 229.55109,169.4211 230,171.47263 230,178 c 0,6.57118 -0.44319,8.56746 -3.06834,13.82085 -3.64342,7.29112 -9.25634,12.40864 -16.63983,15.17115 -6.29066,2.35364 -15.90815,2.55795 -21.62961,0.4595 z M 36.279917,168.91189 c -1.221045,-0.45392 -2.471497,-1.85729 -2.778781,-3.1186 -0.307285,-1.26131 -0.433248,-18.42621 -0.279918,-38.14422 L 33.5,91.79814 86.626245,60.14907 139.75249,28.5 140.23661,23.675508 C 141.12453,14.827006 147.04824,9.5 156,9.5 c 6.3242,0 9.52034,1.637557 13.43821,6.885119 2.89101,3.87219 2.89101,13.357572 0,17.229762 -5.17243,6.927909 -13.6584,9.230707 -20.61768,5.594924 -2.90105,-1.515614 -3.95884,-1.666379 -5,-0.712639 C 143.09424,39.162474 120.3375,52.905773 93.25,69.03783 L 44,98.368842 v 34.193138 c 0,26.17199 -0.293229,34.42002 -1.25,35.16034 -2.161664,1.67263 -4.174938,2.04278 -6.470083,1.18957 z M 159.42857,28.428571 C 162.46128,25.395861 160.26636,20 156,20 c -2.38604,0 -5,2.613962 -5,5 0,2.386038 2.61396,5 5,5 1.02143,0 2.56429,-0.707143 3.42857,-1.571429 z"
           id="path70" />
        <path
           style="fill:#fda43c;fill-opacity:1"
           d="m 115.5,281.42816 c -21.45,-12.39609 -45.199701,-26.15854 -52.777114,-30.5832 -11.16619,-6.52025 -14.050871,-7.81765 -15.221651,-6.84598 -4.372988,3.62925 -14.732406,2.91258 -19.346249,-1.3384 -8.161108,-7.51925 -6.456643,-21.44237 3.185078,-26.01766 10.336464,-4.90497 22.646602,2.02171 22.668185,12.75496 0.0074,3.7016 0.373583,4.3032 3.75,6.16154 2.057963,1.13269 24.666657,14.16661 50.241541,28.96429 25.57489,14.79767 47.17737,26.90486 48.00552,26.90486 0.82815,0 15.29034,-7.97143 32.1382,-17.71428 C 204.99138,263.97143 219.69425,256 220.81657,256 c 4.24164,0 6.55179,4.84029 3.93343,8.24145 -1.57311,2.04342 -66.90355,39.76452 -68.83018,39.74181 -0.7809,-0.009 -18.96982,-10.159 -40.41982,-22.5551 z m -72.940125,-47.8792 c 1.997105,-3.04796 1.180415,-5.89063 -2.125052,-7.3967 -2.196292,-1.0007 -2.847667,-0.83032 -4.980778,1.30279 C 32.478991,230.4301 32.410947,231.41095 35,234 c 2.693881,2.69388 5.613375,2.5197 7.559875,-0.45104 z M 269.39034,246.05004 C 262.03386,244.29935 258.01447,238.98371 258.01033,231 c -0.003,-6.40286 2.4341,-11.20811 7.00422,-13.80849 l 2.9728,-1.69151 0.006,-58.64686 L 268,98.206271 233.84938,77.881088 c -18.78284,-11.178851 -34.75784,-20.932405 -35.5,-21.674564 -2.16669,-2.166692 -1.61961,-5.983354 1.11443,-7.774767 3.14527,-2.060862 0.40472,-3.467791 44.16441,22.672864 L 279,92.234598 v 61.667092 61.66709 l 2.92658,1.72878 c 4.44345,2.62481 7.07342,7.61546 7.07342,13.42259 0,10.47072 -9.34154,17.77348 -19.60966,15.32989 z M 277,234 c 2.58905,-2.58905 2.52101,-3.5699 -0.45405,-6.54495 -2.13311,-2.13311 -2.78448,-2.30349 -4.98077,-1.30279 -3.30547,1.50607 -4.12216,4.34874 -2.12506,7.3967 1.94651,2.97074 4.866,3.14492 7.55988,0.45104 z m -162.33253,1.61744 c -12.47584,-3.48565 -20.467333,-16.62389 -17.679195,-29.06512 1.225991,-5.47062 3.196445,-9.63081 5.445785,-11.4976 1.38259,-1.14744 1.56594,-7.08486 1.56594,-50.70928 0,-54.083912 -0.0485,-53.602478 5.90949,-58.615831 8.44551,-7.106428 20.46932,-5.22683 26.81671,4.192071 L 139,93.295766 v 49.230964 49.23096 l 3.45658,5.74023 c 5.29735,8.79711 5.80862,17.14161 1.56046,25.46867 -5.3629,10.51216 -17.80655,15.87587 -29.34957,12.65085 z m 13.66134,-8.98147 c 4.15601,-1.73649 8.30523,-6.65103 9.61248,-11.3855 1.33883,-4.84886 -0.13298,-10.26026 -3.98337,-14.64561 L 131,197.23597 V 146.54106 95.846154 l -2.92308,-2.923077 c -3.76145,-3.761453 -8.75837,-3.961078 -12.77116,-0.510201 l -2.80576,2.412876 -0.27674,51.235568 -0.27675,51.23557 -2.92393,3.33017 c -11.479189,13.07408 3.1371,32.76481 19.30623,26.00891 z M 116,222.24845 c -7.70735,-3.85026 -8.91112,-13.76676 -2.41488,-19.8935 L 117,199.1343 V 170.56715 142 h 5 5 v 29.0141 29.01409 l 3.09832,2.76835 c 6.27515,5.60685 4.30362,16.46626 -3.5881,19.76364 -4.46684,1.86636 -6.25641,1.81328 -10.51022,-0.31173 z m 73,-14.83694 c -8.17352,-2.93206 -13.22737,-7.46372 -17.74503,-15.91151 -2.29663,-4.29457 -2.67387,-6.19924 -2.67387,-13.5 0,-7.20867 0.3954,-9.25961 2.60266,-13.5 3.63914,-6.99121 10.26023,-15.55686 19.71104,-25.5 l 8.07912,-8.5 8.11399,8.41573 c 8.42141,8.73459 17.32052,20.03223 20.54647,26.08427 1.44506,2.711 1.865,5.64157 1.86286,13 -0.003,10.427 -1.41283,14.41746 -7.57178,21.43211 -6.96977,7.93814 -22.52903,11.70889 -32.92546,7.9794 z M 34.035184,167.06574 C 33.37591,165.83388 33,151.89382 33,128.67752 V 92.223565 L 86.47494,60.361782 139.94988,28.5 l 0.0251,-3.348871 c 0.0852,-11.382217 11.83416,-18.9832478 22.23269,-14.383484 6.41032,2.835589 9.29237,7.304585 9.29237,14.409025 0,6.085459 -1.68875,9.381891 -6.7373,13.151176 -3.70309,2.764757 -11.38277,3.242283 -15.72089,0.977531 L 145.58363,37.5 94.791813,67.885568 44,98.271135 v 33.430175 c 0,21.13192 -0.380822,34.14175 -1.035184,35.36443 C 42.250275,168.40087 40.867321,169 38.5,169 c -2.367321,0 -3.750275,-0.59913 -4.464816,-1.93426 z M 159.8,28.8 c 2.82807,-2.828069 0.24928,-8.8 -3.8,-8.8 -4.04928,0 -6.62807,5.971931 -3.8,8.8 0.66,0.66 2.37,1.2 3.8,1.2 1.43,0 3.14,-0.54 3.8,-1.2 z"
           id="path68" />
        <path
           style="fill:#fda43c;fill-opacity:1"
           d="M 107.30648,276.57265 C 81.350051,261.54028 57.769553,247.79914 54.905377,246.0368 l -5.207593,-3.20427 -4.019054,1.81234 c -10.552828,4.75866 -21.354011,-1.21005 -22.42865,-12.39404 -1.198091,-12.46876 11.049367,-20.99882 22.409856,-15.60791 4.729483,2.24429 8.337694,7.79283 8.349321,12.83921 0.0089,3.87615 0.229385,4.14407 6.25,7.5956 3.432409,1.96774 26.208294,15.13024 50.613083,29.25 C 135.27712,280.44748 155.59173,292 156.0159,292 c 0.42418,0 14.76742,-8.1 31.87388,-18 17.10646,-9.9 31.93461,-18 32.95145,-18 2.86116,0 5.49946,3.50645 4.78378,6.35793 -0.48987,1.95179 -7.39097,6.35097 -34.57517,22.04029 -18.67974,10.78098 -34.54516,19.58023 -35.2565,19.5539 -0.71134,-0.0263 -22.53042,-12.3471 -48.48686,-27.37947 z M 42.463534,234.04029 c 3.659842,-4.04408 -0.656836,-10.05789 -5.81249,-8.09772 -3.292236,1.25171 -4.239447,4.51047 -2.210919,7.60639 1.950824,2.97734 5.572877,3.19914 8.023409,0.49133 z M 268.6838,245.56276 c -7.22742,-2.59954 -10.68607,-7.54238 -10.68006,-15.2631 0.004,-5.66854 2.4819,-10.29204 6.91966,-12.91349 L 268,215.56878 V 156.82894 98.089104 L 233.7046,77.643545 C 214.84213,66.398488 198.81688,56.484283 198.09293,55.611979 c -2.92777,-3.527752 1.64612,-9.436177 5.98551,-7.731903 0.86814,0.340958 18.09053,10.499731 38.27197,22.57505 l 36.69354,21.955126 -0.27198,61.671218 -0.27197,61.67121 3.40698,1.87366 c 9.59502,5.27675 9.29307,20.93429 -0.51151,26.52457 -4.3525,2.48167 -8.46681,2.93864 -12.71167,1.41185 z m 8.935,-12.10372 c 3.02034,-4.60964 -1.06298,-9.31857 -6.37618,-7.35309 -3.03838,1.12397 -3.9659,5.43735 -1.70615,7.93434 2.48244,2.74308 6.07335,2.48483 8.08233,-0.58125 z m -162.79825,2.18399 C 98.325703,231.06756 91.108551,210.81345 101.072,197.0593 l 2.928,-4.04198 0.0165,-49.25866 c 0.0164,-49.216806 0.0184,-49.262034 2.26523,-53.229089 5.57493,-9.84306 18.0946,-12.132497 26.70877,-4.884155 6.18423,5.203728 6.0095,3.512076 6.0095,58.182484 0,44.19077 0.18074,50.07721 1.57309,51.23276 5.93417,4.92492 7.92816,19.57443 3.73484,27.43934 -5.80737,10.89219 -18.00392,16.3284 -29.48738,13.14303 z m 14.10999,-9.10711 c 9.95519,-5.14803 12.52125,-18.93029 4.93668,-26.51485 L 131,197.15385 v -50.5002 -50.500199 l -2.58889,-3.076726 c -3.60099,-4.279533 -9.29726,-4.344422 -13.48803,-0.153648 L 112,95.846154 v 50.921936 c 0,50.47852 -0.0183,50.9385 -2.10238,52.82456 -7.80768,7.06586 -6.33074,19.82935 3.02406,26.13355 3.98966,2.68864 11.62831,3.07499 16.00886,0.80972 z m -12.63195,-4.16006 c -8.19691,-4.04186 -9.27909,-16.06641 -1.88212,-20.91309 L 117,199.76998 V 170.88499 142 h 5 5 v 29.39301 c 0,25.15459 0.21547,29.4757 1.49428,29.96642 2.29464,0.88054 5.49824,6.78904 5.49824,10.14057 0,4.26976 -3.45556,9.3777 -7.4823,11.06018 -4.35309,1.81883 -6.21747,1.78518 -10.21163,-0.18432 z M 191,208.1243 C 176.88868,203.48085 168.5542,192.30864 168.52725,178 c -0.0225,-11.94799 4.37507,-19.6188 21.84723,-38.10863 l 8.87447,-9.39137 6.97427,7.5 c 11.58745,12.46093 19.69395,23.1627 21.7908,28.76703 5.66034,15.1286 -1.07613,32.24371 -15.42506,39.1899 -5.2332,2.53335 -16.91327,3.70594 -21.58896,2.16737 z M 34.556704,166.77749 C 33.217562,164.8656 33,159.51009 33,128.45767 V 92.360355 L 86.499926,60.430177 c 51.919944,-30.987201 53.499924,-32.0199 53.500004,-34.968287 1.3e-4,-5.371991 3.99512,-11.707261 8.96196,-14.21189 5.42131,-2.7338071 8.24622,-2.7925275 13.76745,-0.28618 7.47025,3.391097 10.79752,11.749632 7.80077,19.596522 -3.33018,8.719928 -13.27267,12.817189 -21.23423,8.750542 L 145.5,37.372005 94.75,67.754245 44,98.136485 v 33.497495 c 0,21.17833 -0.380703,34.20885 -1.035184,35.43176 -1.463315,2.73423 -6.409864,2.56465 -8.408112,-0.28825 z M 159.8,28.8 c 0.66,-0.66 1.2,-2.37 1.2,-3.8 0,-3.304758 -1.69524,-5 -5,-5 -3.30476,0 -5,1.695242 -5,5 0,3.304758 1.69524,5 5,5 1.43,0 3.14,-0.54 3.8,-1.2 z"
           id="path66" />
      </g>
    </g>
  </g>
</svg>
